<svg width="48" height="48" viewBox="0 0 48 48" fill="none" xmlns="http://www.w3.org/2000/svg">
<path d="M40.9706 40.9706C37.6141 44.327 33.3377 46.6128 28.6822 47.5388C24.0266 48.4649 19.201 47.9896 14.8156 46.1731C10.4302 44.3566 6.68188 41.2805 4.04473 37.3337C1.40758 33.3869 2.92347e-07 28.7468 0 24C-2.92347e-07 19.2533 1.40757 14.6131 4.04473 10.6663C6.68188 6.71954 10.4302 3.6434 14.8156 1.82689C19.201 0.0103886 24.0266 -0.464892 28.6822 0.461153C33.3377 1.3872 37.6141 3.67298 40.9706 7.02943L32.4853 15.5147C30.8071 13.8365 28.6689 12.6936 26.3411 12.2306C24.0133 11.7676 21.6005 12.0052 19.4078 12.9134C17.2151 13.8217 15.3409 15.3598 14.0224 17.3332C12.7038 19.3065 12 21.6266 12 24C12 26.3734 12.7038 28.6935 14.0224 30.6668C15.3409 32.6402 17.2151 34.1783 19.4078 35.0866C21.6005 35.9948 24.0133 36.2324 26.3411 35.7694C28.6689 35.3064 30.8071 34.1635 32.4853 32.4853L40.9706 40.9706Z" fill="white"/>
<circle cx="24" cy="24" r="6" fill="white"/>
</svg>
